HIERARCHY
ROOT hips
{
  OFFSET 0 10.6860622 2.3727825e-15
  CHANNELS 6 Xposition Yposition Zposition Yrotation Xrotation Zrotation
  JOINT leftUpperLeg
  {
    OFFSET 0.6642549969 -0.9402397400000004 0
    CHANNELS 3 Yrotation Xrotation Zrotation
    JOINT leftLowerLeg
    {
      OFFSET 0 -3.997221335632195 0
      CHANNELS 3 Yrotation Xrotation Zrotation
      JOINT leftFoot
      {
        OFFSET -0.13777839790000004 -4.6145792000000005 -0.22186036399999998
        CHANNELS 3 Yrotation Xrotation Zrotation
        JOINT leftToes
        {
          OFFSET -0.03777410834999995 -0.9130806927000008 0.85230013
          CHANNELS 3 Yrotation Xrotation Zrotation
          End Site
          {
            OFFSET -0.03777410834999995 -0.9130806927000008 0.85230013
          }
        }
      }
    }
  }
  JOINT rightUpperLeg
  {
    OFFSET -0.6642778626 -0.9402397400000004 0
    CHANNELS 3 Yrotation Xrotation Zrotation
    JOINT rightLowerLeg
    {
      OFFSET 0 -3.997221452859387 0
      CHANNELS 3 Yrotation Xrotation Zrotation
      JOINT rightFoot
      {
        OFFSET 0.1377926176 -4.6145792000000005 -0.22185782299999995
        CHANNELS 3 Yrotation Xrotation Zrotation
        JOINT rightToes
        {
          OFFSET 0.037780746850000047 -0.9130806927000008 0.85230167
          CHANNELS 3 Yrotation Xrotation Zrotation
          End Site
          {
            OFFSET 0.037780746850000047 -0.9130806927000008 0.85230167
          }
        }
      }
    }
  }
  JOINT spine
  {
    OFFSET 0 0.13988381660000015 0
    CHANNELS 3 Yrotation Xrotation Zrotation
    JOINT chest
    {
      OFFSET 0 0.6191039003973773 0
      CHANNELS 3 Yrotation Xrotation Zrotation
      JOINT upperChest
      {
        OFFSET 0 0.9855186130586943 0
        CHANNELS 3 Yrotation Xrotation Zrotation
        JOINT leftShoulder
        {
          OFFSET 0.1807663869 1.5087829790000005 0
          CHANNELS 3 Yrotation Xrotation Zrotation
          JOINT leftUpperArm
          {
            OFFSET 0.5985063006419806 0 0
            CHANNELS 3 Yrotation Xrotation Zrotation
            JOINT leftLowerArm
            {
              OFFSET 2.2993332369501065 0 0
              CHANNELS 3 Yrotation Xrotation Zrotation
              JOINT leftHand
              {
                OFFSET 2.395047042602395 0 0
                CHANNELS 3 Yrotation Xrotation Zrotation
                JOINT leftIndexProximal
                {
                  OFFSET 0.5766295810000004 0.04556643899499946 0.17265095988184
                  CHANNELS 3 Yrotation Xrotation Zrotation
                  JOINT leftIndexIntermediate
                  {
                    OFFSET 0.2957229000000008 -0.019352197700001517 -0.007932640616999987
                    CHANNELS 3 Yrotation Xrotation Zrotation
                    JOINT leftIndexDistal
                    {
                      OFFSET 0.19008243099999922 -0.012484908149998475 -0.002786250786000012
                      CHANNELS 3 Yrotation Xrotation Zrotation
                      End Site
                      {
                        OFFSET 0.19008243099999922 -0.012484908149998475 -0.002786250786000012
                      }
                    }
                  }
                }
                JOINT leftMiddleProximal
                {
                  OFFSET 0.5834975091000001 0.0524350405149987 0.02204081888183999
                  CHANNELS 3 Yrotation Xrotation Zrotation
                  JOINT leftMiddleIntermediate
                  {
                    OFFSET 0.33880573540000003 -0.019871473270000717 -0.00000971183179999946
                    CHANNELS 3 Yrotation Xrotation Zrotation
                    JOINT leftMiddleDistal
                    {
                      OFFSET 0.20676022730000088 -0.012221336379999448 0.0001471936708000235
                      CHANNELS 3 Yrotation Xrotation Zrotation
                      End Site
                      {
                        OFFSET 0.20676022730000088 -0.012221336379999448 0.0001471936708000235
                      }
                    }
                  }
                }
                JOINT leftLittleProximal
                {
                  OFFSET 0.5344154683999995 -0.012880921405001189 -0.24414037221816004
                  CHANNELS 3 Yrotation Xrotation Zrotation
                  JOINT leftLittleIntermediate
                  {
                    OFFSET 0.21758961730000093 -0.011650919939999227 0.011893592810000034
                    CHANNELS 3 Yrotation Xrotation Zrotation
                    JOINT leftLittleDistal
                    {
                      OFFSET 0.1475273964999999 -0.008152365682999818 0.006001092492999946
                      CHANNELS 3 Yrotation Xrotation Zrotation
                      End Site
                      {
                        OFFSET 0.1475273964999999 -0.008152365682999818 0.006001092492999946
                      }
                    }
                  }
                }
                JOINT leftRingProximal
                {
                  OFFSET 0.5799399463000003 0.026911854694997794 -0.12150566991816003
                  CHANNELS 3 Yrotation Xrotation Zrotation
                  JOINT leftRingIntermediate
                  {
                    OFFSET 0.26167887460000006 -0.013480186499999602 0.010996293000000053
                    CHANNELS 3 Yrotation Xrotation Zrotation
                    JOINT leftRingDistal
                    {
                      OFFSET 0.17667108799999987 -0.008990287899999228 0.0055541023999999065
                      CHANNELS 3 Yrotation Xrotation Zrotation
                      End Site
                      {
                        OFFSET 0.17667108799999987 -0.008990287899999228 0.0055541023999999065
                      }
                    }
                  }
                }
                JOINT leftThumbProximal
                {
                  OFFSET 0.11018806699999972 -0.09448718900500053 0.17047963138184
                  CHANNELS 3 Yrotation Xrotation Zrotation
                  JOINT leftThumbIntermediate
                  {
                    OFFSET 0.31062601459999983 -0.08126270900000132 0.15443142000000007
                    CHANNELS 3 Yrotation Xrotation Zrotation
                    JOINT leftThumbDistal
                    {
                      OFFSET 0.21627175790000086 -0.08833193599999878 0.018771167799999988
                      CHANNELS 3 Yrotation Xrotation Zrotation
                      End Site
                      {
                        OFFSET 0.21627175790000086 -0.08833193599999878 0.018771167799999988
                      }
                    }
                  }
                }
              }
            }
          }
        }
        JOINT neck
        {
          OFFSET 0 1.5463305265074576 0
          CHANNELS 3 Yrotation Xrotation Zrotation
          JOINT head
          {
            OFFSET 0 0.8456443600000344 0
            CHANNELS 3 Yrotation Xrotation Zrotation
            JOINT leftEye
            {
              OFFSET 0.30408573140000006 0.5104519199999995 0.1276382305
              CHANNELS 3 Yrotation Xrotation Zrotation
              End Site
              {
                OFFSET 0.30408573140000006 0.5104519199999995 0.1276382305
              }
            }
            JOINT rightEye
            {
              OFFSET -0.30409491089999996 0.5104519199999995 0.1276379445
              CHANNELS 3 Yrotation Xrotation Zrotation
              End Site
              {
                OFFSET -0.30409491089999996 0.5104519199999995 0.1276379445
              }
            }
            JOINT jaw
            {
              OFFSET -3.155239131000001e-7 -0.11984121820000082 0.60178107
              CHANNELS 3 Yrotation Xrotation Zrotation
              End Site
              {
                OFFSET -3.155239131000001e-7 -0.11984121820000082 0.60178107
              }
            }
          }
        }
        JOINT rightShoulder
        {
          OFFSET -0.1807303465 1.5087829790000005 0
          CHANNELS 3 Yrotation Xrotation Zrotation
          JOINT rightUpperArm
          {
            OFFSET -0.5985063796536958 0 0
            CHANNELS 3 Yrotation Xrotation Zrotation
            JOINT rightLowerArm
            {
              OFFSET -2.2993322059002854 0 0
              CHANNELS 3 Yrotation Xrotation Zrotation
              JOINT rightHand
              {
                OFFSET -2.395045314457259 0 0
                CHANNELS 3 Yrotation Xrotation Zrotation
                JOINT rightIndexProximal
                {
                  OFFSET -0.5764487688300002 0.0441371204405987 0.17361932004999997
                  CHANNELS 3 Yrotation Xrotation Zrotation
                  JOINT rightIndexIntermediate
                  {
                    OFFSET -0.29573011380000047 -0.01934826376999843 -0.007698921482999974
                    CHANNELS 3 Yrotation Xrotation Zrotation
                    JOINT rightIndexDistal
                    {
                      OFFSET -0.19008373999999884 -0.012503266380000655 -0.0026365778999999897
                      CHANNELS 3 Yrotation Xrotation Zrotation
                      End Site
                      {
                        OFFSET -0.19008373999999884 -0.012503266380000655 -0.0026365778999999897
                      }
                    }
                  }
                }
                JOINT rightMiddleProximal
                {
                  OFFSET -0.5834852037300005 0.05211639405060153 0.02307162440000001
                  CHANNELS 3 Yrotation Xrotation Zrotation
                  JOINT rightMiddleIntermediate
                  {
                    OFFSET -0.33880114510000003 -0.019952774050000954 0.0002455003561999819
                    CHANNELS 3 Yrotation Xrotation Zrotation
                    JOINT rightMiddleDistal
                    {
                      OFFSET -0.20675694929999955 -0.012273788999999091 0.00030209124000002766
                      CHANNELS 3 Yrotation Xrotation Zrotation
                      End Site
                      {
                        OFFSET -0.20675694929999955 -0.012273788999999091 0.00030209124000002766
                      }
                    }
                  }
                }
                JOINT rightLittleProximal
                {
                  OFFSET -0.5346811737299992 -0.011214256288399227 -0.24363941305000003
                  CHANNELS 3 Yrotation Xrotation Zrotation
                  JOINT rightLittleIntermediate
                  {
                    OFFSET -0.21757715980000092 -0.011771559690000988 0.01201554387
                    CHANNELS 3 Yrotation Xrotation Zrotation
                    JOINT rightLittleDistal
                    {
                      OFFSET -0.1475201849000004 -0.00822055339600003 0.006082065407000015
                      CHANNELS 3 Yrotation Xrotation Zrotation
                      End Site
                      {
                        OFFSET -0.1475201849000004 -0.00822055339600003 0.006082065407000015
                      }
                    }
                  }
                }
                JOINT rightRingProximal
                {
                  OFFSET -0.5800810755299999 0.027657985680600072 -0.12066365025000003
                  CHANNELS 3 Yrotation Xrotation Zrotation
                  JOINT rightRingIntermediate
                  {
                    OFFSET -0.26166445029999974 -0.013623118409999302 0.011164098990000045
                    CHANNELS 3 Yrotation Xrotation Zrotation
                    JOINT rightRingDistal
                    {
                      OFFSET -0.17666387530000027 -0.009072900100000503 0.005668185599999959
                      CHANNELS 3 Yrotation Xrotation Zrotation
                      End Site
                      {
                        OFFSET -0.17666387530000027 -0.009072900100000503 0.005668185599999959
                      }
                    }
                  }
                }
                JOINT rightThumbProximal
                {
                  OFFSET -0.10997596379000074 -0.09577489355940072 0.16989765924999997
                  CHANNELS 3 Yrotation Xrotation Zrotation
                  JOINT rightThumbIntermediate
                  {
                    OFFSET -0.31036620999999986 -0.08229339117999834 0.15440884469999996
                    CHANNELS 3 Yrotation Xrotation Zrotation
                    JOINT rightThumbDistal
                    {
                      OFFSET -0.21631306399999906 -0.08825326400000111 0.018656797720000014
                      CHANNELS 3 Yrotation Xrotation Zrotation
                      End Site
                      {
                        OFFSET -0.21631306399999906 -0.08825326400000111 0.018656797720000014
                      }
                    }
                  }
                }
              }
            }
          }
        }
      }
    }
  }
}
MOTION
Frames: 6
Frame Time: 0.03333333333333333
-0.35874975014852317 -5.123277799954755 -4.06696231189136 0 -20.20164309071982 0 6.736952931201101 5.99485781409634 10.424252496758031 -67.84167745403963 88.4823780070832 -63.199637110061026 27.65409333069665 55.37267123463659 33.43339013834004 0 0 0 -6.38617238305825 5.25875022688944 -11.180108281789009 76.40358818046428 88.53834119839398 71.64494941198676 -24.967925981773153 54.313282670289674 -31.002782354838146 0 0 0 -0.1632872934263043 52.11155887530643 -0.10857290007546463 0.14358371658496077 41.70854312835744 0.7430801567807926 0 0 0 -27.443066177698846 3.1412957677089146 24.45019201978265 24.71526547909428 -48.907991646399616 -44.03169939402086 -122.01606194692096 44.298496439631954 5.910272015777635 -9.933789920847651 -38.004340210563846 6.015897751569778 0 0 0 0 0 0 0 0 0 0 0 0 0 0 0 0 0 0 0 0 0 0 0 0 0 0 0 0 0 0 0 0 0 0 0 0 0 0 0 0 0 0 0 0 0 -13.485903926941145 11.224766275785777 -4.299610911978153 -0.011234881464483327 -36.7182146561109 4.541481311603366 0 0 0 0 0 0 0 0 0 26.974092441976786 3.496909225539088 -25.092891489239413 -24.1315702211791 -48.205734379981074 45.64229913660831 120.39132445799014 44.15839717187473 -6.630605410373962 -35.64553180232425 0.45814142143789516 3.806236354197481 0 0 0 0 0 0 0 0 0 0 0 0 0 0 0 0 0 0 0 0 0 0 0 0 0 0 0 0 0 0 0 0 0 0 0 0 0 0 0 0 0 0 0 0 0
-0.35874975014852317 -5.123277799954755 -4.049925173097257 0 -19.802038965487505 0 6.716081406243652 5.766194125217968 10.361410157161082 -67.84167745403963 88.4823780070832 -63.199637110061026 27.648139957496188 55.36937188757296 33.42376774218203 0 0 0 -6.376035109100245 5.025945630020016 -11.128140954170743 76.40358818046428 88.53834119839398 71.64494941198676 -24.967925981773153 54.313282670289674 -31.002782354838146 0 0 0 -0.16143312137504576 51.57900558080353 -0.10616881705363393 0.14296469980873056 41.37546508224195 0.7420458761536256 0 0 0 -27.68109602104359 3.6676409456729018 23.806101539009266 24.715757260118004 -48.91297993705684 -44.019297086552704 -122.02634946810413 44.299236043954366 5.905617911422518 -10.225003472100056 -37.650297072278704 5.958000644547385 0 0 0 0 0 0 0 0 0 0 0 0 0 0 0 0 0 0 0 0 0 0 0 0 0 0 0 0 0 0 0 0 0 0 0 0 0 0 0 0 0 0 0 0 0 -13.544289513411512 11.129347853464518 -4.310248690940118 -0.011119697559864616 -35.65803346667063 4.541272573296271 0 0 0 0 0 0 0 0 0 27.169877664787737 4.004772957219358 -24.39245795471381 -24.1315702211791 -48.205734379981074 45.64229913660831 120.4011224964167 44.159192141785134 -6.626288344999301 -35.27677374911855 0.736236639554716 3.587633660277219 0 0 0 0 0 0 0 0 0 0 0 0 0 0 0 0 0 0 0 0 0 0 0 0 0 0 0 0 0 0 0 0 0 0 0 0 0 0 0 0 0 0 0 0 0
-0.35874975014852317 -5.123277799954755 -4.032888034303155 0 -19.402434712103002 0 6.695469966045201 5.537507181565403 10.298676648596361 -67.84167745403963 88.4823780070832 -63.199637110061026 27.642187450904157 55.36606680659184 33.41414695196571 0 0 0 -6.366113728328274 4.793131662939793 -11.076233652097713 76.40358818046428 88.53834119839398 71.64494941198676 -24.967925981773153 54.313282670289674 -31.002782354838146 0 0 0 -0.1596357612563177 51.04645000433761 -0.1038194811784412 0.14235679448837385 41.04239050658199 0.7410216593937393 0 0 0 -27.92519366407823 4.191276488116538 23.159419735464986 24.716248951939175 -48.91797392274343 -44.00689223686162 -122.03664180104877 44.299975657593386 5.900963689887791 -10.515291831073899 -37.296491347984336 5.898116320245172 0 0 0 0 0 0 0 0 0 0 0 0 0 0 0 0 0 0 0 0 0 0 0 0 0 0 0 0 0 0 0 0 0 0 0 0 0 0 0 0 0 0 0 0 0 -13.602638389523612 11.033919798579177 -4.320783623183616 -0.011010693379152137 -34.59785022303876 4.541068945040092 0 0 0 0 0 0 0 0 0 27.37200705152615 4.510206566009842 -23.689827076751975 -24.1315702211791 -48.205734379981074 45.64229913660831 120.41092079798204 44.15998236201181 -6.621971163605738 -34.909055950989256 1.0157309335784812 3.370810171893868 0 0 0 0 0 0 0 0 0 0 0 0 0 0 0 0 0 0 0 0 0 0 0 0 0 0 0 0 0 0 0 0 0 0 0 0 0 0 0 0 0 0 0 0 0
-0.35874975014852317 -5.123277799954755 -3.9988134883226776 0 -18.602797166934373 0 6.6550158656476714 5.079977506226293 10.173500015095724 -67.84167745403963 88.4823780070832 -63.199637110061026 27.63030479934839 55.359475496484336 33.39493339356172 0 0 0 -6.346911775189714 4.3273887979055665 -10.972568005733224 76.40358818046428 88.53834119839398 71.64494941198676 -24.967925981773153 54.313282670289674 -31.002782354838146 0 0 0 -0.15620184632353198 49.98030317152597 -0.0992755214144543 0.1411716057540058 40.37599634417346 0.7390005322823027 0 0 0 -28.43296350174407 5.232660625704371 21.854659834688785 24.717242074098962 -48.927963392326134 -43.98209882255081 -122.05723332844231 44.30145968467447 5.891661808453323 -11.093683033042682 -36.58906610845859 5.772379105637622 0 0 0 0 0 0 0 0 0 0 0 0 0 0 0 0 0 0 0 0 0 0 0 0 0 0 0 0 0 0 0 0 0 0 0 0 0 0 0 0 0 0 0 0 0 -13.719206291542305 10.843057241464786 -4.341543447978283 -0.010809045166560028 -32.469354147762225 4.5406748381905375 0 0 0 0 0 0 0 0 0 27.79648291136689 5.516047713637925 -22.273875975240614 -24.1315702211791 -48.205734379981074 45.64229913660831 120.43054568712945 44.16159139735744 -6.61334037646055 -34.17603843945198 1.5793557429267109 2.942119515683994 0 0 0 0 0 0 0 0 0 0 0 0 0 0 0 0 0 0 0 0 0 0 0 0 0 0 0 0 0 0 0 0 0 0 0 0 0 0 0 0 0 0 0 0 0
-0.35874975014852317 -5.123277799954755 -3.981776483724711 0 -18.20280446491234 0 6.6351728349494685 4.8511451667622945 10.111057084415368 -67.84167745403963 88.4823780070832 -63.199637110061026 27.624360841212038 55.35617724922326 33.3853256802979 0 0 0 -6.33763021881698 4.094468976703517 -10.920809872002843 76.40358818046428 88.53834119839398 71.64494941198676 -24.967925981773153 54.313282670289674 -31.002782354838146 0 0 0 -0.1545601799815407 49.44682837402 -0.0970755558672437 0.1405946654467242 40.04269255759057 0.7380037676622083 0 0 0 -28.696612566891382 5.749993134285639 21.196634147752643 24.717736423034562 -48.93295367812348 -43.96970110419546 -122.06752088414358 44.302204098238114 5.88700821396833 -11.381811502194882 -36.23551131260846 5.706577031063331 0 0 0 0 0 0 0 0 0 0 0 0 0 0 0 0 0 0 0 0 0 0 0 0 0 0 0 0 0 0 0 0 0 0 0 0 0 0 0 0 0 0 0 0 0 -13.777429024485803 10.74762829735792 -4.351769843590492 -0.010716074433383141 -31.401763951111285 4.5404839809340976 0 0 0 0 0 0 0 0 0 28.01881531680209 6.016025479938089 -21.560650175817617 -24.1315702211791 -48.205734379981074 45.64229913660831 120.44035165589946 44.16238641030843 -6.609021663319456 -33.8107733591547 1.863415402077864 2.730289037461063 0 0 0 0 0 0 0 0 0 0 0 0 0 0 0 0 0 0 0 0 0 0 0 0 0 0 0 0 0 0 0 0 0 0 0 0 0 0 0 0 0 0 0 0 0
-0.35874975014852317 -5.123277799954755 -3.964739479126744 0 -17.80281149132447 0 6.615586127315105 4.622291435248165 10.04871490359087 -67.84167745403963 88.4823780070832 -63.199637110061026 27.618417873773346 55.352879276713715 33.37571956794942 0 0 0 -6.328561821909767 3.861540330229578 -10.869105152992326 76.40358818046428 88.53834119839398 71.64494941198676 -24.967925981773153 54.313282670289674 -31.002782354838146 0 0 0 -0.15296715432528626 48.913348882499896 -0.09492203862366569 0.1400280403310744 39.70938550331496 0.7370162015167608 0 0 0 -28.966470514231595 6.264270205127125 20.53559805280155 24.71822850953604 -48.937949661779214 -43.95730264446784 -122.0778112337491 44.30294852124089 5.882354011952736 -11.66914941422477 -35.88222466335368 5.638875944303147 0 0 0 0 0 0 0 0 0 0 0 0 0 0 0 0 0 0 0 0 0 0 0 0 0 0 0 0 0 0 0 0 0 0 0 0 0 0 0 0 0 0 0 0 0 -13.835615654985842 10.652189550699278 -4.3618938689667015 -0.010628259268714177 -30.334173206436983 4.540296704563159 0 0 0 0 0 0 0 0 0 28.247607305359434 6.513205788669848 -20.84479551996839 -24.1315702211791 -48.205734379981074 45.64229913660831 120.45015788813605 44.16317667332031 -6.604702790716188 -33.4464994888738 2.1488171862106142 2.520238314295409 0 0 0 0 0 0 0 0 0 0 0 0 0 0 0 0 0 0 0 0 0 0 0 0 0 0 0 0 0 0 0 0 0 0 0 0 0 0 0 0 0 0 0 0 0
